<?xml version="1.0" encoding="UTF-8" standalone="no"?>
<!-- Created with Inkscape (http://www.inkscape.org/) -->

<svg
   width="210mm"
   height="297mm"
   viewBox="0 0 210 297"
   version="1.1"
   id="svg1"
   xml:space="preserve"
   sodipodi:docname="obracerta_v2_2.svg"
   inkscape:version="1.4 (e7c3feb100, 2024-10-09)"
   xmlns:inkscape="http://www.inkscape.org/namespaces/inkscape"
   xmlns:sodipodi="http://sodipodi.sourceforge.net/DTD/sodipodi-0.dtd"
   xmlns="http://www.w3.org/2000/svg"
   xmlns:svg="http://www.w3.org/2000/svg"><sodipodi:namedview
     id="namedview1"
     pagecolor="#ffffff"
     bordercolor="#000000"
     borderopacity="0.25"
     inkscape:showpageshadow="2"
     inkscape:pageopacity="0.0"
     inkscape:pagecheckerboard="0"
     inkscape:deskcolor="#d1d1d1"
     inkscape:document-units="mm"
     inkscape:zoom="1.0333895"
     inkscape:cx="397.23649"
     inkscape:cy="561.25984"
     inkscape:window-width="2560"
     inkscape:window-height="1371"
     inkscape:window-x="0"
     inkscape:window-y="0"
     inkscape:window-maximized="1"
     inkscape:current-layer="svg1" /><defs
     id="defs1" /><g
     id="layer4-5"
     transform="translate(5.3459725,9.9527176)"><ellipse
       style="display:none;fill:#4f8f30;fill-opacity:1;stroke:none;stroke-width:1.49936;stroke-linecap:square;stroke-linejoin:miter;stroke-opacity:1;paint-order:markers stroke fill"
       id="path40-0"
       cx="87.577087"
       cy="132.55624"
       rx="48.436893"
       ry="47.889584" /><path
       d="m 53.943949,121.98342 c -3.940047,0 -5.910234,2.27985 -5.910234,6.83989 0,2.27671 0.509927,4.00725 1.529622,5.19193 1.026632,1.17806 2.514598,1.76733 4.463811,1.76733 2.656756,0 4.446083,-1.40287 5.368664,-4.20904 l -2.840137,-0.51625 c -0.541062,1.61488 -1.373776,2.42207 -2.497522,2.42207 -0.964201,0 -1.688975,-0.40385 -2.174544,-1.21129 -0.485569,-0.80744 -0.728121,-1.95563 -0.728121,-3.44475 0,-3.02458 0.943019,-4.53668 2.829802,-4.53668 0.520252,0 0.981566,0.19502 1.383895,0.5855 0.402328,0.38386 0.704206,0.92678 0.905371,1.62832 l 2.830318,-0.65526 c -0.409265,-1.27733 -1.050923,-2.24011 -1.924947,-2.88871 -0.867088,-0.64859 -1.945752,-0.97306 -3.235978,-0.97306 z"
       style="font-weight:bold;font-size:20.8148px;line-height:0.8;font-family:'Liberation Mono';-inkscape-font-specification:'Liberation Mono, Bold';letter-spacing:0.160989px;white-space:pre;inline-size:78.5413;fill:#feba27;stroke-width:1.443;stroke-linecap:square;paint-order:markers stroke fill"
       id="path9" /><path
       d="m 61.579658,122.19167 v 13.39247 h 10.498584 v -2.26343 h -7.42952 v -3.38533 h 6.368086 v -2.26342 h -6.368086 v -3.21686 h 7.002673 v -2.26343 z"
       style="font-weight:bold;font-size:20.8148px;line-height:0.8;font-family:'Liberation Mono';-inkscape-font-specification:'Liberation Mono, Bold';letter-spacing:0.160989px;white-space:pre;inline-size:78.5413;fill:#feba27;stroke-width:1.443;stroke-linecap:square;paint-order:markers stroke fill"
       id="path8" /><path
       d="m 74.531839,122.19167 v 13.39247 h 3.06958 v -5.11287 h 1.800407 l 3.017387,5.11287 h 3.45457 l -3.631303,-5.76813 c 0.908707,-0.25811 1.61937,-0.70461 2.132686,-1.33997 0.513316,-0.63536 0.769979,-1.40632 0.769979,-2.31303 0,-1.28396 -0.454517,-2.26697 -1.363224,-2.94866 -0.908708,-0.68169 -2.278538,-1.02268 -4.109827,-1.02268 z m 3.06958,2.27376 h 1.748214 c 0.943391,0 1.630264,0.14866 2.060339,0.44649 0.430076,0.29121 0.644922,0.74782 0.644922,1.36994 0,1.27734 -0.874013,1.91616 -2.622062,1.91616 h -1.831413 z"
       style="font-weight:bold;font-size:20.8148px;line-height:0.8;font-family:'Liberation Mono';-inkscape-font-specification:'Liberation Mono, Bold';letter-spacing:0.160989px;white-space:pre;inline-size:78.5413;fill:#feba27;stroke-width:1.443;stroke-linecap:square;paint-order:markers stroke fill"
       id="path7" /><path
       d="m 86.693888,122.19167 v 2.26343 h 4.224548 v 11.12904 h 3.06958 V 124.4551 h 4.224548 v -2.26343 z"
       style="font-weight:bold;font-size:20.8148px;line-height:0.8;font-family:'Liberation Mono';-inkscape-font-specification:'Liberation Mono, Bold';letter-spacing:0.160989px;white-space:pre;inline-size:78.5413;fill:#feba27;stroke-width:1.443;stroke-linecap:square;paint-order:markers stroke fill"
       id="path6" /><path
       d="m 103.62102,122.19167 -4.609021,13.39247 h 3.069581 l 0.95705,-3.27629 h 4.74441 l 0.95756,3.27629 h 3.05925 l -4.5992,-13.39247 z m 1.79007,1.80713 c 0.0555,0.27135 0.15221,0.67469 0.29094,1.21077 0.14567,0.53609 0.62449,2.16752 1.43609,4.89428 h -3.45457 c 0.79772,-2.68705 1.26974,-4.30516 1.41542,-4.85448 0.1526,-0.55594 0.25663,-0.9726 0.31212,-1.25057 z"
       style="font-weight:bold;font-size:20.8148px;line-height:0.8;font-family:'Liberation Mono';-inkscape-font-specification:'Liberation Mono, Bold';letter-spacing:0.160989px;white-space:pre;inline-size:78.5413;fill:#feba27;stroke-width:1.443;stroke-linecap:square;paint-order:markers stroke fill"
       id="path5" /><path
       d="m 111.29171,105.92651 -4.60901,13.39247 h 3.06906 l 0.95756,-3.27629 h 4.74441 l 0.95757,3.27629 h 3.05873 l -4.59869,-13.39247 z m 1.79008,1.80713 c 0.0555,0.27135 0.1522,0.67469 0.29093,1.21078 0.14568,0.53608 0.6245,2.16752 1.43609,4.89427 h -3.45457 c 0.79772,-2.68704 1.26975,-4.30516 1.41542,-4.85448 0.15261,-0.55594 0.25663,-0.9726 0.31213,-1.25057 z"
       style="font-weight:bold;font-size:20.8148px;line-height:0.8;font-family:'Liberation Mono';-inkscape-font-specification:'Liberation Mono, Bold';letter-spacing:0.160989px;white-space:pre;inline-size:78.5413;fill:#feba27;stroke-width:1.443;stroke-linecap:square;paint-order:markers stroke fill"
       id="path4" /><path
       d="m 95.155236,105.92651 v 13.39247 h 3.06958 v -5.11287 h 1.799894 l 3.0179,5.11287 h 3.45405 l -3.6313,-5.76813 c 0.90871,-0.25811 1.61989,-0.7046 2.1332,-1.33996 0.51332,-0.63537 0.76998,-1.40685 0.76998,-2.31356 0,-1.28396 -0.45451,-2.26645 -1.36322,-2.94814 -0.90871,-0.68169 -2.27854,-1.02268 -4.10983,-1.02268 z m 3.06958,2.27325 h 1.748213 c 0.943391,0 1.629751,0.14918 2.059821,0.447 0.43008,0.29121 0.64544,0.74782 0.64544,1.36994 0,1.27734 -0.87401,1.91617 -2.62206,1.91617 h -1.831414 z"
       style="font-weight:bold;font-size:20.8148px;line-height:0.8;font-family:'Liberation Mono';-inkscape-font-specification:'Liberation Mono, Bold';letter-spacing:0.160989px;white-space:pre;inline-size:78.5413;fill:#feba27;stroke-width:1.443;stroke-linecap:square;paint-order:markers stroke fill"
       id="path3" /><path
       d="m 82.202538,105.92651 v 13.39247 h 6.055961 c 1.519137,0 2.708624,-0.33779 3.568774,-1.01286 0.860151,-0.67507 1.290361,-1.61173 1.290361,-2.80965 0,-0.91333 -0.312074,-1.64754 -0.936377,-2.20348 -0.617366,-0.55594 -1.519085,-0.89373 -2.705261,-1.01286 0.950328,-0.19193 1.654193,-0.54572 2.112016,-1.06195 0.457822,-0.52285 0.686779,-1.16487 0.686779,-1.92598 0,-1.08541 -0.391791,-1.91604 -1.175639,-2.49184 -0.77691,-0.58241 -1.921698,-0.87385 -3.433898,-0.87385 z m 3.06958,2.17403 h 2.174544 c 1.158429,0 1.737879,0.5296 1.737879,1.58854 0,1.05231 -0.572136,1.57871 -1.716691,1.57871 h -2.195732 z m 0,5.33146 h 2.601392 c 0.700606,0 1.234841,0.15878 1.602486,0.47646 0.367645,0.31106 0.551387,0.75755 0.551387,1.33997 0,1.2641 -0.693669,1.896 -2.08101,1.896 h -2.674255 z"
       style="font-weight:bold;font-size:20.8148px;line-height:0.8;font-family:'Liberation Mono';-inkscape-font-specification:'Liberation Mono, Bold';letter-spacing:0.160989px;white-space:pre;inline-size:78.5413;fill:#feba27;stroke-width:1.443;stroke-linecap:square;paint-order:markers stroke fill"
       id="path2" /><path
       d="m 74.223697,105.71826 c -1.817416,0 -3.214951,0.57223 -4.193026,1.71721 -0.971138,1.14497 -1.456759,2.85899 -1.456759,5.14232 0,2.28333 0.485621,4.01118 1.456759,5.18263 0.978075,1.17144 2.37561,1.757 4.193026,1.757 1.817415,0 3.211552,-0.58556 4.18269,-1.757 0.971138,-1.17145 1.456759,-2.8993 1.456759,-5.18263 0,-2.28333 -0.485621,-3.99735 -1.456759,-5.14232 -0.971138,-1.14498 -2.365275,-1.71721 -4.18269,-1.71721 z m 0,2.30322 c 1.685618,0 2.528528,1.51849 2.528528,4.55631 0,1.52222 -0.211448,2.67732 -0.634587,3.4649 -0.423139,0.78097 -1.0546,1.17151 -1.893941,1.17151 -0.839341,0 -1.474201,-0.39054 -1.904277,-1.17151 -0.423139,-0.78758 -0.634586,-1.94268 -0.634586,-3.4649 0,-3.03782 0.846308,-4.55631 2.538863,-4.55631 z"
       style="font-weight:bold;font-size:20.8148px;line-height:0.8;font-family:'Liberation Mono';-inkscape-font-specification:'Liberation Mono, Bold';letter-spacing:0.160989px;white-space:pre;inline-size:78.5413;fill:#feba27;stroke-width:1.443;stroke-linecap:square;paint-order:markers stroke fill"
       id="path1" /></g><path
     style="display:inline;fill:#feba27;fill-opacity:1;stroke:none;stroke-width:1.565;stroke-linecap:square;stroke-linejoin:miter;paint-order:markers stroke fill"
     d="m 47.356604,163.46198 13.832908,23.05484 c 3.76968,6.2828 9.68203,10.99242 16.64866,13.26185 l 0.59528,0.19391 c 5.96636,1.94359 14.43926,-0.12981 17.76287,-5.44256 1.54699,-2.47284 2.786812,-5.05807 2.963532,-7.18472 0.39763,-4.78491 -3.731162,-13.39704 -4.755932,-15.44911 -0.12384,-0.24799 -0.45255,-0.44597 -0.73084,-0.4439 l -33.70205,0.25111 -5.04577,-7.06408 z"
     id="path39-4"
     sodipodi:nodetypes="csssssscccc" /><g
     id="layer3-9"
     style="display:inline"
     transform="translate(2.7856276,12.257028)"><path
       style="display:inline;fill:#feba27;fill-opacity:1;stroke:none;stroke-width:1.565;stroke-linecap:square;stroke-linejoin:miter;paint-order:markers stroke fill"
       d="m 96.868113,158.83225 -3.69561,2.83325 a 1.0220526,1.0220526 105.6278 0 0 -0.330599,1.18185 l 2.744167,7.04977 a 0.54222226,0.54222226 26.541609 0 0 0.651542,0.32544 l 4.139157,-1.15941 a 0.68585534,0.68585534 117.40768 0 0 0.46137,-0.8898 l -3.237631,-9.12424 a 0.47225385,0.47225385 16.493863 0 0 -0.732396,-0.21686 z"
       id="path38-6" /></g><path
     d="m 156.51163,88.557801 c -0.40704,0.11431 -0.76786,0.35364 -1.03146,0.68419 l -6.91431,8.66976 c -1.27756,1.60224 -3.07145,2.711599 -5.07566,3.138819 l -4.44314,0.94672 c -1.72731,0.368 -2.09665,0.25037 -2.96365,1.78899 l -35.24796,61.78542 c -1.166896,2.07119 -1.341806,4.55698 -0.47646,6.77117 l 3.16622,8.10131 c 0.65451,1.67478 2.22457,2.01396 3.50676,0.75706 8.69259,-8.52118 40.66801,-40.66366 49.63792,-49.81862 1.25833,-1.28429 1.03049,-1.66011 1.24992,-3.4448 l 2.12545,-17.28835 2.18798,-11.582759 c 0.42996,-2.27631 -0.0601,-4.63023 -1.36271,-6.54585 l -2.1456,-3.15588 c -0.48758,-0.71681 -1.37873,-1.04181 -2.2133,-0.80718 z m -1.89291,9.27436 c 1.95072,-2e-5 3.5321,1.58136 3.53208,3.532089 2e-5,1.95072 -1.58136,3.53211 -3.53208,3.53208 -1.95072,3e-5 -3.5321,-1.58136 -3.53208,-3.53208 -2e-5,-1.950729 1.58136,-3.532109 3.53208,-3.532089 z m -47.72214,69.161679 c 1.76492,-1e-5 3.19568,1.43075 3.19567,3.19567 10e-6,1.76492 -1.43075,3.19568 -3.19567,3.19567 -1.76492,1e-5 -3.19568,-1.43075 -3.19567,-3.19567 -10e-6,-1.76492 1.43075,-3.19568 3.19567,-3.19567 z"
     style="display:inline;fill:#feba27;stroke-width:1.565;stroke-linecap:square;paint-order:markers stroke fill"
     id="path41-8"
     sodipodi:nodetypes="cccccccccsscccccccccccsssss" /></svg>
