<?xml version="1.0" encoding="UTF-8"?>
<!-- Created with Inkscape (http://www.inkscape.org/) -->
<svg width="120.28mm" height="118.58mm" version="1.1" viewBox="0 0 120.28 118.58" xml:space="preserve" xmlns="http://www.w3.org/2000/svg"><g transform="translate(-42.105 -82.106)"><g transform="matrix(1.0804 0 0 1.0829 -.1818 -9.5765)"><ellipse cx="87.577" cy="132.56" rx="48.437" ry="47.89" style="fill:#4f8f30;paint-order:markers stroke fill"/></g><g transform="translate(5.346 9.9527)"><ellipse cx="87.577" cy="132.56" rx="48.437" ry="47.89" style="display:none;fill:#4f8f30;paint-order:markers stroke fill"/><path d="m53.944 121.98c-3.94 0-5.9102 2.2798-5.9102 6.8399 0 2.2767 0.50993 4.0072 1.5296 5.1919 1.0266 1.1781 2.5146 1.7673 4.4638 1.7673 2.6568 0 4.4461-1.4029 5.3687-4.209l-2.8401-0.51625c-0.54106 1.6149-1.3738 2.4221-2.4975 2.4221-0.9642 0-1.689-0.40385-2.1745-1.2113s-0.72812-1.9556-0.72812-3.4448c0-3.0246 0.94302-4.5367 2.8298-4.5367 0.52025 0 0.98157 0.19502 1.3839 0.5855 0.40233 0.38386 0.70421 0.92678 0.90537 1.6283l2.8303-0.65526c-0.40926-1.2773-1.0509-2.2401-1.9249-2.8887-0.86709-0.64859-1.9458-0.97306-3.236-0.97306z" style="fill:#feba27;inline-size:78.5413;paint-order:markers stroke fill;white-space:pre"/><path d="m61.58 122.19v13.392h10.499v-2.2634h-7.4295v-3.3853h6.3681v-2.2634h-6.3681v-3.2169h7.0027v-2.2634z" style="fill:#feba27;inline-size:78.5413;paint-order:markers stroke fill;white-space:pre"/><path d="m74.532 122.19v13.392h3.0696v-5.1129h1.8004l3.0174 5.1129h3.4546l-3.6313-5.7681c0.90871-0.25811 1.6194-0.70461 2.1327-1.34s0.76998-1.4063 0.76998-2.313c0-1.284-0.45452-2.267-1.3632-2.9487-0.90871-0.68169-2.2785-1.0227-4.1098-1.0227zm3.0696 2.2738h1.7482c0.94339 0 1.6303 0.14866 2.0603 0.44649 0.43008 0.29121 0.64492 0.74782 0.64492 1.3699 0 1.2773-0.87401 1.9162-2.6221 1.9162h-1.8314z" style="fill:#feba27;inline-size:78.5413;paint-order:markers stroke fill;white-space:pre"/><path d="m86.694 122.19v2.2634h4.2245v11.129h3.0696v-11.129h4.2245v-2.2634z" style="fill:#feba27;inline-size:78.5413;paint-order:markers stroke fill;white-space:pre"/><path d="m103.62 122.19-4.609 13.392h3.0696l0.95705-3.2763h4.7444l0.95756 3.2763h3.0592l-4.5992-13.392zm1.7901 1.8071c0.0555 0.27135 0.15221 0.67469 0.29094 1.2108 0.14567 0.53609 0.62449 2.1675 1.4361 4.8943h-3.4546c0.79772-2.687 1.2697-4.3052 1.4154-4.8545 0.1526-0.55594 0.25663-0.9726 0.31212-1.2506z" style="fill:#feba27;inline-size:78.5413;paint-order:markers stroke fill;white-space:pre"/><path d="m111.29 105.93-4.609 13.392h3.0691l0.95756-3.2763h4.7444l0.95757 3.2763h3.0587l-4.5987-13.392zm1.7901 1.8071c0.0555 0.27135 0.1522 0.67469 0.29093 1.2108 0.14568 0.53608 0.6245 2.1675 1.4361 4.8943h-3.4546c0.79772-2.687 1.2698-4.3052 1.4154-4.8545 0.15261-0.55594 0.25663-0.9726 0.31213-1.2506z" style="fill:#feba27;inline-size:78.5413;paint-order:markers stroke fill;white-space:pre"/><path d="m95.155 105.93v13.392h3.0696v-5.1129h1.7999l3.0179 5.1129h3.454l-3.6313-5.7681c0.90871-0.25811 1.6199-0.7046 2.1332-1.34 0.51332-0.63537 0.76998-1.4068 0.76998-2.3136 0-1.284-0.45451-2.2664-1.3632-2.9481s-2.2785-1.0227-4.1098-1.0227zm3.0696 2.2732h1.7482c0.94339 0 1.6298 0.14918 2.0598 0.447 0.43008 0.29121 0.64544 0.74782 0.64544 1.3699 0 1.2773-0.87401 1.9162-2.6221 1.9162h-1.8314z" style="fill:#feba27;inline-size:78.5413;paint-order:markers stroke fill;white-space:pre"/><path d="m82.203 105.93v13.392h6.056c1.5191 0 2.7086-0.33779 3.5688-1.0129 0.86015-0.67507 1.2904-1.6117 1.2904-2.8096 0-0.91333-0.31207-1.6475-0.93638-2.2035-0.61737-0.55594-1.5191-0.89373-2.7053-1.0129 0.95033-0.19193 1.6542-0.54572 2.112-1.062 0.45782-0.52285 0.68678-1.1649 0.68678-1.926 0-1.0854-0.39179-1.916-1.1756-2.4918-0.77691-0.58241-1.9217-0.87385-3.4339-0.87385zm3.0696 2.174h2.1745c1.1584 0 1.7379 0.5296 1.7379 1.5885 0 1.0523-0.57214 1.5787-1.7167 1.5787h-2.1957zm0 5.3315h2.6014c0.70061 0 1.2348 0.15878 1.6025 0.47646 0.36764 0.31106 0.55139 0.75755 0.55139 1.34 0 1.2641-0.69367 1.896-2.081 1.896h-2.6743z" style="fill:#feba27;inline-size:78.5413;paint-order:markers stroke fill;white-space:pre"/><path d="m74.224 105.72c-1.8174 0-3.215 0.57223-4.193 1.7172-0.97114 1.145-1.4568 2.859-1.4568 5.1423s0.48562 4.0112 1.4568 5.1826c0.97808 1.1714 2.3756 1.757 4.193 1.757 1.8174 0 3.2116-0.58556 4.1827-1.757 0.97114-1.1714 1.4568-2.8993 1.4568-5.1826s-0.48562-3.9974-1.4568-5.1423c-0.97114-1.145-2.3653-1.7172-4.1827-1.7172zm0 2.3032c1.6856 0 2.5285 1.5185 2.5285 4.5563 0 1.5222-0.21145 2.6773-0.63459 3.4649-0.42314 0.78097-1.0546 1.1715-1.8939 1.1715s-1.4742-0.39054-1.9043-1.1715c-0.42314-0.78758-0.63459-1.9427-0.63459-3.4649 0-3.0378 0.84631-4.5563 2.5389-4.5563z" style="fill:#feba27;inline-size:78.5413;paint-order:markers stroke fill;white-space:pre"/></g><path d="m47.357 163.46 13.833 23.055c3.7697 6.2828 9.682 10.992 16.649 13.262l0.59528 0.19391c5.9664 1.9436 14.439-0.12981 17.763-5.4426 1.547-2.4728 2.7868-5.0581 2.9635-7.1847 0.39763-4.7849-3.7312-13.397-4.7559-15.449-0.12384-0.24799-0.45255-0.44597-0.73084-0.4439l-33.702 0.25111-5.0458-7.0641z" style="fill:#feba27;paint-order:markers stroke fill"/><g transform="translate(2.7856 12.257)"><path d="m96.868 158.83-3.6956 2.8332a1.0221 1.0221 105.63 0 0-0.3306 1.1818l2.7442 7.0498a0.54222 0.54222 26.542 0 0 0.65154 0.32544l4.1392-1.1594a0.68586 0.68586 117.41 0 0 0.46137-0.8898l-3.2376-9.1242a0.47225 0.47225 16.494 0 0-0.7324-0.21686z" style="fill:#feba27;paint-order:markers stroke fill"/></g><path d="m156.51 88.558c-0.40704 0.11431-0.76786 0.35364-1.0315 0.68419l-6.9143 8.6698c-1.2776 1.6022-3.0714 2.7116-5.0757 3.1388l-4.4431 0.94672c-1.7273 0.368-2.0966 0.25037-2.9636 1.789l-35.248 61.785c-1.1669 2.0712-1.3418 4.557-0.47646 6.7712l3.1662 8.1013c0.65451 1.6748 2.2246 2.014 3.5068 0.75706 8.6926-8.5212 40.668-40.664 49.638-49.819 1.2583-1.2843 1.0305-1.6601 1.2499-3.4448l2.1254-17.288 2.188-11.583c0.42996-2.2763-0.0601-4.6302-1.3627-6.5458l-2.1456-3.1559c-0.48758-0.71681-1.3787-1.0418-2.2133-0.80718zm-1.8929 9.2744c1.9507-2e-5 3.5321 1.5814 3.5321 3.5321 2e-5 1.9507-1.5814 3.5321-3.5321 3.5321-1.9507 3e-5 -3.5321-1.5814-3.5321-3.5321-2e-5 -1.9507 1.5814-3.5321 3.5321-3.5321zm-47.722 69.162c1.7649-1e-5 3.1957 1.4308 3.1957 3.1957 1e-5 1.7649-1.4308 3.1957-3.1957 3.1957-1.7649 1e-5 -3.1957-1.4308-3.1957-3.1957-1e-5 -1.7649 1.4308-3.1957 3.1957-3.1957z" style="fill:#feba27;paint-order:markers stroke fill"/></g></svg>
